<?xml version="1.0" encoding="UTF-8"?>
<!-- Generator: Adobe Illustrator 25.4.1, SVG Export Plug-In . SVG Version: 6.00 Build 0)  -->
<svg xmlns="http://www.w3.org/2000/svg" xmlns:xlink="http://www.w3.org/1999/xlink" version="1.1" id="Layer_1" x="0px" y="0px" viewBox="0 0 230 100" style="enable-background:new 0 0 230 100;" xml:space="preserve">
<style type="text/css">
	.st0{fill:#6D6E71;}
	.st1{fill:#5E7E95;}
	.st2{fill:#AD9D38;}
	.st3{fill:#799C49;}
</style>
<g transform="translate(-97.512 -174.409)">
	<path class="st0" d="M188.1,252.3l-1.2-3.4c-0.2-0.6-0.4-1.5-0.4-1.5h0c0,0-0.2,1-0.4,1.5l-1.2,3.4H188.1z M242,252   c0.1-1.1-0.7-2-1.8-2.1c0,0-0.1,0-0.1,0c-1.2,0-2.2,0.9-2.3,2.1H242z M240.2,248.7c2.2,0,3.4,1.7,3.4,3.7c0,0.2,0,0.4,0,0.6h-5.8   c0,1.5,1.2,2.6,2.7,2.6c0,0,0,0,0.1,0c0.9,0,1.7-0.4,2.3-0.9l0.6,1.1c-0.9,0.7-1.9,1.1-3.1,1.1c-2.2,0.1-4.1-1.6-4.2-3.8   c0-0.1,0-0.2,0-0.3c-0.1-2.1,1.5-4,3.6-4.1C239.9,248.7,240.1,248.7,240.2,248.7L240.2,248.7z M232,250.6c0-0.2-0.1-0.3-0.4-0.3   H231v-1.3h1.4c0.7,0,1,0.3,1,0.9v0.5c0,0.3,0,0.6,0,0.6h0c0.3-1.2,1.3-2,2.5-2.1c0.2,0,0.4,0,0.4,0v1.5c-0.1,0-0.3,0-0.4,0   c-1.1,0-2,0.8-2.2,1.9c-0.1,0.5-0.2,0.9-0.2,1.4v3.2H232L232,250.6z M226.4,255.8c1.3,0,2.1-1.3,2.1-2.5V253h-0.4   c-1.2,0-3.2,0.1-3.2,1.5c0,0.7,0.6,1.3,1.4,1.3C226.4,255.8,226.4,255.8,226.4,255.8L226.4,255.8z M228.2,251.9h0.4v-0.1   c0-1.3-0.6-1.9-1.8-1.9c-0.4,0-1.3,0.1-1.3,0.6v0.5h-1.4v-0.8c0-1.3,2-1.5,2.7-1.5c2.6,0,3.3,1.3,3.3,3.1v3.3   c0,0.2,0.1,0.3,0.3,0.4c0,0,0.1,0,0.1,0h0.6v1.3h-1.4c-0.7,0-1-0.4-1-0.9c0-0.2,0-0.3,0-0.5h0c-0.5,1-1.5,1.6-2.6,1.6   c-1.4,0-2.6-0.8-2.6-2.3C223.5,252,226.9,251.9,228.2,251.9L228.2,251.9z M220.1,248.7c1,0,2.8,0.4,2.8,1.7v0.8h-1.4v-0.4   c0-0.6-0.9-0.8-1.5-0.8c-1.6,0.1-2.8,1.4-2.7,2.9c0.1,1.5,1.3,2.7,2.8,2.7c0.9,0,1.8-0.4,2.4-1.1l0.6,1.1c-0.8,0.9-2,1.4-3.2,1.3   c-2.3,0-4.1-1.9-4.1-4.2C216,250.6,217.9,248.7,220.1,248.7L220.1,248.7z M213.2,245.8h1.3v1.6h-1.3V245.8z M213.2,250.6   c0-0.2-0.1-0.3-0.4-0.3h-0.6v-1.3h1.5c0.7,0,1,0.3,1,1v5.3c0,0.2,0.1,0.4,0.3,0.4h0.6v1.3h-1.5c-0.7,0-1-0.3-1-1L213.2,250.6z    M209.7,247.4c0-0.2-0.1-0.3-0.2-0.3c0,0-0.1,0-0.1,0h-0.6v-1.3h1.5c0.7,0,1,0.3,1,1v8.4c0,0.2,0.1,0.4,0.3,0.4h0.6v1.3h-1.5   c-0.7,0-1-0.3-1-1L209.7,247.4z M206.5,252.7c0-2.1-1-2.6-2.2-2.6c-1.4,0-2.2,1-2.2,2.6c0,1.6,0.9,2.8,2.3,2.8   C205.5,255.4,206.5,254.8,206.5,252.7L206.5,252.7z M203.9,258.8c1.4,0,2.5-0.6,2.5-2.2V256c0-0.2,0-0.5,0-0.5h0   c-0.5,0.8-1.4,1.3-2.3,1.2c-2.2,0-3.5-1.8-3.5-4.1c0-2.3,1.3-4,3.5-4c2,0,2.5,1.2,2.5,1.2h0c0-0.1,0-0.2,0-0.2   c0-0.5,0.3-0.8,0.9-0.8h1.5v1.3h-0.6c-0.2,0-0.3,0.1-0.3,0.3c0,0,0,0,0,0.1v6c0,2.6-2,3.6-4,3.6c-0.9,0-1.8-0.2-2.7-0.6l0.5-1.2   C202.5,258.6,203.2,258.7,203.9,258.8L203.9,258.8z M192.2,250.5c0-0.2-0.1-0.3-0.2-0.3c0,0-0.1,0-0.1,0h-0.6v-1.3h1.5   c0.7,0,1,0.3,1,0.9v0.3c0,0.1,0,0.3,0,0.4h0c0.6-1.1,1.7-1.8,3-1.8c1.9,0,2.7,1,2.7,3v3.4c0,0.2,0.1,0.4,0.3,0.4h0.6v1.3h-1.5   c-0.7,0-1-0.3-1-1v-3.7c0-1.1-0.2-2-1.5-2c-1.2,0-2.2,0.8-2.5,1.9c-0.1,0.3-0.2,0.7-0.1,1.1v3.7h-1.5L192.2,250.5z M181.5,255.5   h0.2c0.2,0,0.5-0.1,0.5-0.4l3.4-9.3h1.6l3.4,9.3c0,0.2,0.3,0.4,0.5,0.4h0.2v1.3h-0.9c-0.6,0.1-1.2-0.3-1.3-0.9c0,0,0,0,0,0   l-0.8-2.3h-4l-0.8,2.3c-0.3,0.7-0.5,0.9-1.3,0.9h-0.8V255.5z"></path>
	<path class="st1" d="M232.3,226.1c0.7,0,1.3-0.1,2-0.2c0.3-0.1,0.6-0.3,0.6-0.7v0c0.1-0.4-0.2-0.8-0.7-0.9c-0.1,0-0.2,0-0.3,0   c-0.6,0.1-1.1,0.2-1.7,0.2h-0.2c-1.2-0.1-2.5-0.2-3.7-0.5c-1.2-0.3-2.4-0.4-3.6-0.5h-0.1c-2,0.1-3.9,0.8-5.4,2.1   c1.1-2.5,2.6-4.8,4.5-6.7c2.4-2.4,5.4-4.1,8.7-5.1c0.4-0.1,0.7-0.5,0.6-0.9c-0.1-0.2-0.2-0.4-0.4-0.5l0,0c-0.2-0.1-0.4-0.1-0.6-0.1   c-3.2,0.9-6.1,2.5-8.6,4.8c0.4-2.3,1.8-6.4,6.9-10.6c0.3-0.3,0.4-0.7,0.2-1v0c-0.2-0.4-0.7-0.5-1.1-0.2c0,0,0,0-0.1,0   c-6.9,5.7-7.6,11.4-7.6,13.4c0,0,0,0.1,0,0.1c-3.5,3.8-5.5,11.1-5.7,13.4c-0.4,3.6-0.5,7.2-0.4,10.7h4.2c-0.7-1.9-1.3-3.9-1.8-5.9   c-0.3-1.8-0.4-4-0.4-4.3c-0.1-1.4,0.1-2.8,0.5-4.1c0.4-1.4,4-3.5,6.1-3.5h0.1c0.4,0,0.9,0.1,1.3,0.3c1.4,0.6,4.7,2.3,4.8,5.5   c0,0.4,0.3,0.7,0.7,0.7h0c0.4,0,0.8-0.3,0.9-0.7c0,0,0,0,0-0.1c-0.1-2-1.1-3.8-2.7-5c0.8,0.1,1.6,0.2,2.5,0.2L232.3,226.1z"></path>
	<path class="st1" d="M230.8,208h3.2c0,0.1,0,0.1,0,0.2c-1.1,0.3-2.1,0.6-3.1,1c0.4,0.2,0.9,0.4,1.4,0.6c0.9,0.2,1.8,0.1,2.6-0.4   c0.9-0.5,1.7-1.1,2.6-1.7c-0.7-0.3-1.4-0.6-2.1-0.9c-0.7-0.3-1.6-0.4-2.4-0.3C232.1,206.7,231.2,207.2,230.8,208z"></path>
	<path class="st1" d="M230.8,201.4c0,0,0.1,0,0.2,0c-0.1,1.1-0.1,3.3-0.1,3.3c0.4-0.3,0.7-0.7,1.1-1.1c0.5-0.8,0.7-1.7,0.5-2.6   c-0.2-1-0.5-2-0.7-3c-0.5,0.6-1,1.2-1.5,1.7c-0.6,0.6-0.9,1.3-1.1,2.1c-0.2,0.9,0,1.8,0.6,2.5C230.1,203.4,230.4,202.4,230.8,201.4   z"></path>
	<path class="st1" d="M221.5,227.1c-0.8,0.4-1.5,1.1-1.9,1.9c-0.5,0.9-0.6,1.9-0.2,2.9c0.9-1,1.7-2,2.5-2.9c0,0,0.1,0.1,0.1,0.1   c-0.5,1.2-1,2.3-1.5,3.6c0.3-0.1,0.6-0.2,0.9-0.3c1.3-0.5,2.1-1.7,2.3-3.1c0.1-1.2,0.2-2.3,0.2-3.5   C223,226.3,222.3,226.7,221.5,227.1z"></path>
	<path class="st1" d="M226.8,226.7c0.1,1.3,0.2,2.6,0.3,3.9c0,0-0.1,0-0.1,0c-0.5-1.2-1-2.4-1.5-3.6c0,0.1-0.1,0.1-0.1,0.2   c-1.1,1.6-0.5,3.7,0.6,4.9c0.6,0.6,1.2,1.3,1.7,2c0.1,0.1,0.2,0.2,0.3,0.2c0.2-1,0.5-1.9,0.7-2.9c0.3-1,0.2-2.1-0.3-3.1   C228.1,227.6,227.5,227,226.8,226.7L226.8,226.7z"></path>
	<path class="st1" d="M241.1,221.8c-0.8,0.1-1.6,0.1-2.4,0.2c-0.8,0-1.6,0.3-2.3,0.9c-0.6,0.5-1,1.2-1.1,2c1-0.5,2-0.9,2.9-1.3   c0,0,0,0.1,0.1,0.1c-0.8,0.7-1.6,1.4-2.4,2.1c0.2,0.1,0.4,0.1,0.6,0.2c1.2,0.1,2.4-0.5,3-1.5C240.2,223.6,240.7,222.7,241.1,221.8z   "></path>
	<path class="st1" d="M228.7,213c1.1-0.7,1.3-2,2-3.1c-0.6,0-1.1,0.1-1.7,0.2c-0.6,0.1-1.1,0.3-1.6,0.6c-0.7,0.4-1.1,1.1-1.1,1.8   c0.7-0.4,1.4-0.7,2.1-1.1c0,0,0,0.1,0.1,0.1c-0.5,0.6-1.1,1.1-1.7,1.7C227.5,213.5,228.2,213.4,228.7,213L228.7,213z"></path>
	<path class="st1" d="M223.7,221.4c0,0.2,0.1,0.3,0.2,0.5c0.6,0.8,1.6,1.3,2.6,1.2c1.5,0.1,2.8-0.8,4.3-1c-0.6-0.4-1-0.8-1.5-1.1   c-0.4-0.3-0.8-0.7-1.2-0.9c-0.9-0.5-1.9-0.7-2.8-0.6c-0.6,0.1-1.1,0.4-1.5,0.8l3.3,1.2c0,0,0,0,0,0.1L223.7,221.4z"></path>
	<path class="st1" d="M235.8,215.2c-0.7-0.5-1.5-0.8-2.4-0.8c-0.6,0-1.2,0.2-1.7,0.6c1,0.4,2,0.8,3,1.3c0,0,0,0.1,0,0.1   c-1.1-0.1-2.1-0.2-3.2-0.3c0.5,1.2,1.7,1.9,2.9,1.8c1.2-0.2,2.4-0.4,3.5-0.8C237.2,216.5,236.5,215.8,235.8,215.2z"></path>
	<path class="st1" d="M240,211.3c-0.9-0.3-1.8-0.6-2.7-0.9c-0.8-0.2-1.7-0.2-2.5,0.2c-0.6,0.2-1,0.7-1.3,1.2h3.2v0.1   c-1,0.3-2,0.7-3,1c0.9,0.9,2.3,1,3.4,0.4C238.2,212.8,239.1,212.1,240,211.3L240,211.3z"></path>
	<path class="st1" d="M232.2,222.4c1,0.5,2.2,0.4,3.2-0.3c0.6-0.4,1.1-0.9,1.6-1.4c0.3-0.3,0.6-0.6,1-0.9c-0.8-0.2-1.5-0.3-2.3-0.5   c-0.9-0.3-1.8-0.2-2.7,0.1c-0.7,0.3-1.3,0.8-1.6,1.5c1.1-0.1,2.1-0.2,3.1-0.3c0,0,0,0.1,0,0.1c-0.9,0.4-1.9,0.9-2.8,1.3   C232,222.2,232.1,222.3,232.2,222.4z"></path>
	<path class="st1" d="M235.7,227.8c-0.5-0.6-1.2-1-2-1c0.5,1,0.9,1.9,1.3,2.8c0,0-0.1,0.1-0.1,0.1c-0.7-0.7-1.4-1.5-2.1-2.3   c0,0.2-0.1,0.4-0.1,0.5c-0.1,1.1,0.3,2.3,1.3,2.9c0.6,0.4,1.2,0.7,1.8,1.1c0.4,0.2,0.8,0.4,1.2,0.7c-0.1-0.8-0.2-1.6-0.2-2.3   C236.7,229.4,236.3,228.5,235.7,227.8z"></path>
	<path class="st1" d="M230.8,217.1c-0.6-0.4-1.4-0.6-2.1-0.5c-0.5,0.1-1,0.3-1.3,0.7c0.8,0.2,1.6,0.3,2.3,0.5v0.3   c-0.8,0.1-1.6,0.2-2.3,0.2c0.5,0.6,1.2,0.9,1.9,0.9c1.2,0,2.1-0.7,3.2-1.2C231.8,217.7,231.3,217.5,230.8,217.1z"></path>
	<path class="st2" d="M207.2,232.6c-0.6-8.8-4.5-12.2-5.5-12.9c0,0-0.1-0.1-0.1-0.1c-4.5-4.2-6.2-8-6.8-10.7   c-0.1-0.4-0.5-0.7-0.9-0.6c-0.3,0-0.5,0.2-0.6,0.5c0,0,0,0,0,0c0,0.1-0.1,0.3,0,0.4c0.6,3,2.5,7.1,7.3,11.6c1.6,1.3,2.8,3,3.5,4.9   c0.3,0.7,0.5,1.4,0.7,2.1c-1.4-1.5-3.7-2.9-7.2-2.9c-1.4,0-2.8-0.3-4.1-0.9c1.6-2.5,1.9-5.7,0.8-8.5c-0.2-0.4-0.6-0.6-1-0.4   c0,0-0.1,0-0.1,0.1l0,0c-0.3,0.2-0.4,0.6-0.3,1c0.9,2.4,0.6,5-0.8,7.1c-0.4-0.3-0.8-0.5-1.2-0.8c-0.3-0.3-0.8-0.2-1.1,0.1   c-0.1,0.1-0.1,0.2-0.2,0.3v0c-0.1,0.3,0,0.6,0.2,0.8c2.1,1.8,4.8,2.8,7.7,2.8c5.9,0.1,7.6,4.2,8,5.9c0,0.1,0.1,0.3,0.1,0.4   c0.1,1.8,0.1,3.6,0,5.4c-0.1,1.4-0.6,4.8-0.6,4.8h3.3C208.5,239,207.5,235.1,207.2,232.6z"></path>
	<path class="st2" d="M197.8,227.6c-0.5,1.2-0.9,2.3-1.4,3.4c0,0-0.1,0-0.2,0c0.1-1.2,0.2-3.6,0.2-3.7c-0.4,0.3-0.7,0.5-1,0.9   c-0.8,1-1.1,2.3-0.8,3.6c0.2,0.9,0.7,3,0.8,3.1c0.1-0.1,0.2-0.1,0.2-0.2c0.6-0.6,1.2-1.3,1.7-1.9c0.9-1,1.3-2.3,1.1-3.6   C198.4,228.5,198.2,228,197.8,227.6z"></path>
	<path class="st2" d="M201.6,230.6C201.6,230.6,201.7,230.6,201.6,230.6c0.9,0.9,1.7,1.9,2.5,2.8c0.1-0.1,0.1-0.2,0.1-0.3   c0.2-1,0-2.1-0.6-3c-1-1.4-2.7-1.8-4-2.9c0,1.1,0.1,2.2,0.2,3.3c0.1,0.7,0.4,1.4,0.7,2c0.5,0.9,1.4,1.5,2.5,1.6   C202.6,233,202.1,231.8,201.6,230.6z"></path>
	<path class="st2" d="M199.9,223.8c0-0.1,0.1-0.2,0.1-0.3c0.2-1,0-2.1-0.6-3c-1-1.4-2.7-1.8-4-2.9c0,1.1,0.1,2.2,0.2,3.3   c0.1,0.7,0.3,1.4,0.7,2c0.5,0.9,1.5,1.5,2.5,1.6c-0.5-1.2-1-2.4-1.5-3.6c0,0,0.1,0,0.1,0C198.2,221.8,199,222.8,199.9,223.8z"></path>
	<path class="st2" d="M185.8,216.9c0.5,0.9,1.5,1.5,2.5,1.6c-0.5-1.2-1-2.4-1.5-3.6c0,0,0.1,0,0.1-0.1c0.8,1,1.6,1.9,2.5,2.9   c0.1-0.1,0.1-0.2,0.1-0.3c0.2-1,0-2.1-0.6-3c-1-1.4-2.7-1.8-4-2.9c0,0.2,0,0.3,0,0.4c0,1,0.1,1.9,0.2,2.9   C185.3,215.6,185.5,216.2,185.8,216.9L185.8,216.9z"></path>
	<path class="st2" d="M191.3,228.9C191.3,228.9,191.2,228.9,191.3,228.9c0.4-1,0.9-1.9,1.4-2.9c-0.3,0-0.5,0.1-0.7,0.1   c-1.2,0.3-2,1.3-2.3,2.4c-0.3,1-0.4,2-0.6,3c0.8-0.4,1.6-0.7,2.3-1c0.8-0.3,1.5-0.9,1.9-1.7c0.4-0.6,0.5-1.4,0.3-2.1   C192.8,227.5,192.1,228.2,191.3,228.9z"></path>
	<path class="st2" d="M190.1,225.2c-1,0.4-2,0.8-2.9,1.3c0,0,0-0.1-0.1-0.1c0.8-0.7,1.6-1.4,2.4-2.1c-0.2-0.1-0.5-0.1-0.7-0.1   c-1.2-0.1-2.3,0.5-3,1.5c-0.6,0.8-1.1,1.7-1.5,2.6c0.9,0,1.7-0.1,2.6-0.2c0.9,0,1.7-0.4,2.3-1C189.7,226.6,190,225.9,190.1,225.2   L190.1,225.2z"></path>
	<path class="st2" d="M187.1,223.1c0.7,0.3,1.4,0.3,2.1,0c-0.9-0.7-1.7-1.4-2.5-2c0,0,0-0.1,0.1-0.1c1,0.4,1.9,0.8,3,1.2   c-0.1-0.3-0.1-0.5-0.2-0.7c-0.5-1.1-1.5-1.8-2.7-2c-1-0.1-2-0.1-3-0.2c0.5,0.8,0.9,1.5,1.3,2.2   C185.6,222.2,186.3,222.8,187.1,223.1z"></path>
	<path class="st2" d="M193.1,208.2c-0.2-1.1-0.4-2.2-0.5-3.2c0,0,0.1,0,0.1,0c0.5,0.9,1,1.9,1.5,2.9c0.4-0.6,0.6-1.4,0.4-2.1   c-0.2-1-0.7-1.9-1.5-2.5c-0.6-0.4-1-1-1.6-1.5c-0.1,0.8-0.2,1.5-0.4,2.3c-0.2,1-0.1,2,0.3,2.8C191.8,207.5,192.4,208,193.1,208.2   L193.1,208.2z"></path>
	<path class="st2" d="M190.5,214.1c0.2,0.1,0.4,0.2,0.6,0.3c-0.3-1.2-0.5-2.2-0.7-3.2c0,0,0.1,0,0.1,0c0.6,0.9,1.1,1.8,1.7,2.8   c0.1-0.2,0.2-0.4,0.3-0.6c0.3-1.2,0-2.4-0.9-3.3c-0.7-0.7-1.5-1.4-2.4-2.1c-0.1,1.1-0.3,2.1-0.3,3.1   C188.8,212.3,189.4,213.4,190.5,214.1L190.5,214.1z"></path>
	<path class="st3" d="M214.6,230.2c1.3-0.5,2.2-1.7,2.3-3.1c0-1.4,0-2.7-0.2-4.1c-0.2,0.1-0.3,0.2-0.5,0.3c-0.5,0.4-0.9,0.8-1.4,1.2   c-0.4,0.3-0.8,0.7-1.2,1.1c-0.9,1-1.2,2.3-0.7,3.6c0.1,0.2,0.1,0.3,0.2,0.5c0.7-1.1,1.3-2.2,2-3.2c0,0,0.1,0,0.1,0   c-0.3,1.2-0.6,2.4-1,3.7C214.4,230.2,214.5,230.2,214.6,230.2L214.6,230.2z"></path>
	<path class="st3" d="M216.8,217.2c-0.6,0.5-1.2,1-1.8,1.5c-0.8,0.6-1.4,1.5-1.6,2.5c-0.1,0.7,0,1.4,0.3,2c0.6-1,1.1-1.9,1.7-2.8   c0,0,0.1,0,0.1,0c-0.2,1-0.6,3.2-0.6,3.1c0.1,0,0.1,0,0.2,0c0.8-0.3,1.4-1,1.7-1.8C217.4,220.2,216.8,218.8,216.8,217.2z"></path>
	<path class="st3" d="M219.4,213.8c-0.6,0.9-1.1,1.8-1.6,2.7c0,0,0.1,0.1,0.1,0.1c0.1,0,0.1,0,0.2,0c0.8-0.1,1.6-0.5,2.1-1.2   c1.1-1.2,0.9-2.8,1.4-4.3c-0.8,0.3-1.5,0.6-2.2,0.9c-1,0.3-1.7,1-2.2,1.9c-0.3,0.6-0.4,1.3-0.3,2   C217.7,215.1,218.5,214.4,219.4,213.8C219.3,213.8,219.3,213.8,219.4,213.8z"></path>
	<path class="st3" d="M205,205.6c-0.4,0.7-0.7,1.5-0.7,2.3c-0.1,0.9,0.3,1.8,1.1,2.4c0.2-1.2,0.4-2.2,0.5-3.2h0.2   c0.1,1.1,0.5,3.2,0.5,3.2c0.3-0.4,0.6-0.8,0.8-1.3c0.4-0.8,0.4-1.8,0-2.6c-0.4-0.9-0.8-1.8-1.3-2.8   C205.7,204.3,205.4,205,205,205.6z"></path>
	<path class="st3" d="M215.8,197.8c0.2-1.2,0.3-2.2,0.5-3.2h0.2c0.1,1.1,0.5,3.2,0.5,3.2c0.3-0.4,0.6-0.8,0.8-1.3   c0.4-0.8,0.4-1.8,0-2.6c-0.4-0.9-0.8-1.8-1.3-2.8c-0.4,0.7-0.8,1.3-1.2,2c-0.4,0.7-0.7,1.5-0.7,2.3   C214.7,196.4,215.1,197.3,215.8,197.8z"></path>
	<path class="st3" d="M224.3,210.7c0.9-1,0.7-2.3,1.1-3.5c-0.6,0.3-1.1,0.4-1.6,0.7c-0.5,0.3-1,0.6-1.4,1c-0.6,0.5-0.8,1.3-0.5,2.1   c0.6-0.6,1.2-1.1,1.7-1.6c0,0,0.1,0.1,0.1,0.1c-0.4,0.7-0.7,1.3-1.2,2.1C223.2,211.5,223.9,211.2,224.3,210.7L224.3,210.7z"></path>
	<path class="st3" d="M225,206.3c0.6-0.6,1.2-1.1,1.7-1.6c0,0,0.1,0,0.1,0.1c-0.4,0.7-0.7,1.4-1.2,2.1c0.7,0,1.3-0.3,1.7-0.8   c0.9-1,0.7-2.3,1.1-3.5c-0.5,0.2-1.1,0.4-1.6,0.7c-0.5,0.3-1,0.6-1.4,1C224.9,204.7,224.7,205.5,225,206.3L225,206.3z"></path>
	<path class="st3" d="M208.3,196.4c0.2-1.3,0.4-2.5,0.6-3.7c0.1,0,0.1,0,0.2,0c0.2,1.2,0.4,2.4,0.5,3.6c0.7-0.5,1.2-1.3,1.3-2.2   c0.3-2.1-1.2-3.6-1.9-5.5l0,0c-0.6,1.1-1.2,2.3-1.7,3.4c-0.6,1.3-0.3,2.9,0.6,4C208,196.2,208.1,196.3,208.3,196.4L208.3,196.4z"></path>
	<path class="st3" d="M209.8,198.9c0,0.7,0.3,1.4,0.8,1.9c0.5-1.3,0.9-2.4,1.3-3.6c0,0,0.1,0,0.1,0c0,1.2-0.1,2.5-0.2,3.8   c0.1-0.1,0.2-0.1,0.3-0.2c1.4-0.8,1.8-2.7,1.5-4c-0.1-0.6-0.3-1.2-0.5-1.8c-0.1-0.5-0.3-1.1-0.4-1.6c-0.8,1-1.6,1.9-2.3,2.9   C209.9,197.1,209.7,198,209.8,198.9L209.8,198.9z"></path>
	<path class="st3" d="M203.8,200.6c-0.1,0.8,0.2,1.7,0.7,2.3c0.5-1.2,1-2.4,1.4-3.6c0,0,0.1,0,0.1,0c-0.1,1.3-0.2,2.5-0.3,3.9   c1-0.5,1.8-1.5,1.9-2.7c0.3-1.7-0.5-3.2-0.8-4.9c-0.5,0.6-1,1.2-1.5,1.7C204.4,198.3,203.9,199.4,203.8,200.6z"></path>
	<path class="st3" d="M219,201.9c0.4-1.1,0.8-2.2,1.2-3.2c0,0,0.1,0,0.1,0c-0.1,1.1-0.1,2.2-0.2,3.4c0.2-0.1,0.3-0.2,0.5-0.3   c1.1-0.9,1.6-2.3,1.2-3.7c-0.2-1-0.5-2-0.9-3c-0.8,0.9-1.5,1.8-2.2,2.8c-0.7,1-0.7,2.3-0.1,3.4C218.7,201.6,218.8,201.7,219,201.9z   "></path>
	<path class="st3" d="M214.3,211.3c0.6-1.2,1-2.4,1.5-3.6c-1.2,0.3-2.4,0.6-3.6,0.9c-0.8,0.3-1.6,0.8-2,1.6   c-0.4,0.6-0.6,1.3-0.6,2.1c1.1-0.7,2.1-1.4,3.2-2l0.1,0.1c-0.8,1-1.6,1.9-2.4,2.9C212,213.6,213.7,212.5,214.3,211.3z"></path>
	<path class="st3" d="M211.1,206.4c0.1,0.2,0.1,0.3,0.2,0.5c0.6-1,1.3-1.9,1.9-2.9c0,0,0.1,0,0.1,0c-0.3,1.1-0.6,2.2-0.9,3.3   c0.2-0.1,0.4-0.1,0.6-0.2c1.3-0.6,2-1.9,1.9-3.3c0-1-0.1-2.1-0.2-3.1c-0.9,0.7-1.8,1.5-2.7,2.3C211,203.9,210.7,205.2,211.1,206.4   L211.1,206.4z"></path>
	<path class="st3" d="M201.7,201.8c-0.4-1.3-0.7-2.5-1-3.7c0,0,0.1,0,0.1,0c0.7,1,1.4,2.1,2.1,3.2c0.1-0.1,0.1-0.2,0.2-0.3   c0.5-1.5,0-3.1-1.1-4.1c-0.5-0.4-1-0.8-1.5-1.2c-0.4-0.3-0.8-0.7-1.3-1.1c-0.1,1.3-0.2,2.5-0.2,3.7c0,0.9,0.4,1.8,1,2.5   C200.4,201.3,201,201.7,201.7,201.8L201.7,201.8z"></path>
	<path class="st3" d="M201.1,210.9c-1.6-0.6-3.2,0-4.9-0.2c0.1,0.1,0.1,0.3,0.2,0.4c0.6,0.8,1.2,1.5,1.8,2.3   c0.5,0.5,1.1,0.9,1.7,1.3c0.9,0.5,2.1,0.4,3-0.1c-1.1-0.7-2.2-1.4-3.2-2.1c0,0,0-0.1,0.1-0.1c1.2,0.3,2.4,0.7,3.6,1   c0-0.1,0-0.2-0.1-0.3C202.9,212,202.1,211.2,201.1,210.9L201.1,210.9z"></path>
	<path class="st3" d="M196.1,207.3c0.4,0.6,0.8,1.2,1.3,1.7c0.8,0.7,1.9,0.9,2.9,0.7c-0.9-1-1.7-1.9-2.6-2.9c0,0,0-0.1,0.1-0.1   c1.1,0.6,2.2,1.3,3.3,1.9c0-0.1,0-0.2,0-0.3c-0.1-1.1-0.7-2-1.6-2.6c-1.4-1-3.1-0.8-4.7-1.4C195.2,205.3,195.6,206.3,196.1,207.3   L196.1,207.3z"></path>
	<path class="st3" d="M197.4,203.8c0.7,0.5,1.6,0.7,2.4,0.6c-0.7-0.9-1.4-1.7-2.1-2.5c0,0,0,0,0,0c0.9,0.5,1.8,1.1,2.7,1.6   c0-0.3-0.1-0.6-0.1-0.9c-0.4-1.1-1.3-2-2.5-2.3c-0.9-0.2-1.9-0.4-2.8-0.6c0.3,0.6,0.6,1.3,0.8,1.9   C196.2,202.5,196.7,203.3,197.4,203.8z"></path>
	<path class="st3" d="M218.9,220.7c0.7-0.1,1.3-0.5,1.7-1.1c0.4-0.9,0.8-1.8,1-2.8c-0.7,0.3-1.5,0.4-2.3,0.8   c-1.1,0.4-1.7,1.4-1.6,2.6c0.7-0.5,1.3-1,1.9-1.4c0,0,0.1,0.1,0.1,0.1c-0.4,0.6-0.9,1.2-1.4,1.9L218.9,220.7z"></path>
	<path class="st3" d="M210.7,217.9c0.7,0,1.3-0.5,1.7-1.1c0.4-0.9,0.8-1.8,1-2.8c-0.7,0.2-1.5,0.4-2.3,0.7c-1.1,0.4-1.7,1.4-1.6,2.6   c0.7-0.5,1.3-1,1.9-1.4c0,0,0.1,0.1,0.1,0.1c-0.4,0.6-0.9,1.2-1.4,1.9C210.3,218,210.5,218,210.7,217.9z"></path>
	<path class="st3" d="M209,230.2c0.1-0.2,0.2-0.3,0.3-0.5c0.3-0.6,0.3-1.4,0-2c-0.5-0.8-1-1.7-1.6-2.4c-0.3,0.8-0.6,1.6-0.8,2.4   c-0.3,1.1,0.2,2.2,1.2,2.7c0-0.8-0.1-1.6-0.1-2.4c0,0,0.1,0,0.1,0C208.5,228.7,208.8,229.4,209,230.2z"></path>
	<path class="st3" d="M204.2,196.9c0-0.8,0-1.6-0.1-2.4c0.1,0,0.1,0,0.2,0c0.2,0.7,0.5,1.4,0.8,2.2c0.1-0.1,0.2-0.3,0.3-0.5   c0.4-0.6,0.4-1.4,0-2c-0.5-0.8-1.1-1.6-1.8-2.4c-0.2,0.8-0.5,1.5-0.6,2.3C202.7,195.2,203.2,196.4,204.2,196.9z"></path>
	<path class="st3" d="M209.9,222.8c-0.5-1.6-1.8-2.8-3.4-3.2c-0.7-0.1-1.5-0.3-2.2-0.5c-0.2,0-0.3-0.1-0.5-0.1c0.4,1,0.7,2,1.1,3   c0.4,1,1.1,1.8,2,2.3c0.7,0.4,1.4,0.5,2.2,0.3c-0.8-1-1.5-1.9-2.2-2.8c0,0,0-0.1,0.1-0.1c1,0.6,2,1.3,3,1.9   C210,223.3,210,223,209.9,222.8z"></path>
	<path class="st3" d="M204.4,217.3c-0.1-0.2-0.1-0.3-0.2-0.5c-0.3-0.6-0.9-1.1-1.6-1.1c-1,0-2,0-3,0.2c0.5,0.6,1,1.2,1.6,1.8   c0.8,0.8,2,1,3,0.5c-0.7-0.4-1.4-0.8-2-1.2C202.9,217,203.7,217.1,204.4,217.3L204.4,217.3z"></path>
	<path class="st2" d="M191.7,221.3c0.2-0.2,0.3-0.3,0.4-0.4c0.5-0.5,0.6-1.3,0.4-2c-0.3-0.9-0.8-1.8-1.3-2.7   c-0.4,0.7-0.8,1.4-1.1,2.2c-0.5,1-0.2,2.2,0.7,2.9c0.1-0.8,0.2-1.6,0.3-2.4C191.4,219.7,191.6,220.5,191.7,221.3L191.7,221.3z"></path>
	<path class="st3" d="M221.7,205.5c0.6-1.2,0.2-2.4,0.2-3.7c-0.5,0.4-1,0.7-1.3,1.1c-0.4,0.4-0.8,0.8-1.1,1.3   c-0.4,0.7-0.4,1.5,0,2.1c0.5-0.7,0.9-1.3,1.3-2c0,0,0.1,0.1,0.1,0.1c-0.2,0.7-0.4,1.5-0.6,2.3C220.8,206.6,221.4,206.2,221.7,205.5   z"></path>
	<path class="st3" d="M225.3,197.5c0,0,0.1,0,0.1,0c0,0.8,0,1.6,0,2.4c0.6-0.3,1-0.9,1.2-1.5c0.3-1.3-0.4-2.4-0.7-3.6   c-0.4,0.5-0.8,0.9-1.1,1.4c-0.3,0.5-0.6,1-0.8,1.5c-0.3,0.7-0.1,1.5,0.5,2.1C224.8,199,225.1,198.3,225.3,197.5z"></path>
	<path class="st3" d="M212.5,230.6c-0.1-0.4-0.2-0.8-0.2-1.2c-0.9-4-0.8-6.5,4.1-15.6c0.2-0.4,0.3-0.7,0.5-1.1   c0.1-0.1,6.5-3.3,8.2-9.3c0.2-0.7,0.3-1.5,0.4-2.3c0-0.3-0.2-0.6-0.5-0.8h0c-0.4-0.2-0.8,0-1,0.4c0,0.1,0,0.2-0.1,0.2   c-0.2,2.3-1.3,5.9-6,9.2c1-2.9,0.9-6.1-0.1-9c-0.3-0.9-0.6-1.8-1-2.5c-0.1-0.2-0.3-0.4-0.5-0.4h0c-0.4-0.1-0.8,0.2-0.9,0.6   c0,0.2,0,0.3,0,0.4c2,4.4,1.8,9.5-0.5,13.8c-1.3,2.4-2.5,4.8-3.5,7.3c-1.9-1.5-3.5-3.3-4.8-5.3c4-4.2,3.5-12.8,3-14.7   c-0.1-0.4-0.5-0.6-0.9-0.5c0,0-0.1,0-0.1,0l0,0c-0.4,0.1-0.5,0.5-0.4,0.9c0.5,1.5,0.8,9-2.3,12.8c-0.8-1.5-1.4-3.2-1.9-4.8   c-0.5-1.7-0.9-3.5-1-5.3c0-0.4-0.4-0.8-0.9-0.7c0,0,0,0,0,0h0c-0.4,0.1-0.7,0.4-0.6,0.8c0.2,1.9,0.5,3.7,1.1,5.6   c1.4,5.1,4.4,9.6,8.6,12.8c-0.8,2.5-0.9,5.2-0.2,7.8c0,0,1.5,7.2-0.6,13.1h4.2C214.1,240.8,213.8,234.4,212.5,230.6z"></path>
</g>
</svg>
