<?xml version="1.0" encoding="UTF-8"?>
<!-- Generator: Adobe Illustrator 25.4.1, SVG Export Plug-In . SVG Version: 6.00 Build 0)  -->
<svg xmlns="http://www.w3.org/2000/svg" xmlns:xlink="http://www.w3.org/1999/xlink" version="1.1" id="Layer_1" x="0px" y="0px" viewBox="0 0 230 100" style="enable-background:new 0 0 230 100;" xml:space="preserve">
<g transform="translate(-104.9 -302.8)">
	<path d="M149.2,367.1h141.4v3.5H149.2C149.2,370.6,149.2,367.1,149.2,367.1z"></path>
	<path d="M213.8,335l-6.4,8.4l-7.2-8.4h-14.8l12.3,14.5v7.7h12.9V350l11.3-15L213.8,335L213.8,335z"></path>
	<path d="M223.7,335v22.2h29.7v-4.6h-18v-4.1h16.1v-4.6h-16.1v-4.3h18V335L223.7,335L223.7,335z"></path>
	<path d="M171.8,335l-5.1,10l-5.1-10h-12.3v22.2h3v-14.5l7.5,14.5h6.5l6.4-14.5v14.5h11.3V335H171.8L171.8,335z"></path>
	<path d="M290.4,341.2c0-4.3-3.8-6.2-8.6-6.2h-23.6v22.2h11.6v-8.6l7,8.6h13.6l-7.7-9.6C287.1,347.3,290.4,345.1,290.4,341.2   L290.4,341.2z M274.8,343.2h-4.9v-3.7h4.9c1.4,0,2.7,0.6,2.7,1.9C277.5,342.5,276.3,343.2,274.8,343.2z"></path>
</g>
</svg>
